<svg width="407" height="297" viewBox="0 0 407 297" fill="none" xmlns="http://www.w3.org/2000/svg">
<mask id="mask0_31_2005" style="mask-type:luminance" maskUnits="userSpaceOnUse" x="0" y="0" width="407" height="423">
<path d="M196.279 0L-1.1499e-05 153.728L210.349 422.3L406.628 268.572L196.279 0Z" fill="white"/>
</mask>
<g mask="url(#mask0_31_2005)">
<path fill-rule="evenodd" clip-rule="evenodd" d="M114.415 141.231C112.984 138.452 111.711 135.609 110.623 132.673C109.254 128.97 108.185 125.136 107.297 121.228C106.78 118.909 106.381 116.556 106.109 114.172C105.827 111.773 105.697 109.375 105.723 106.951C105.732 106.532 105.59 104.6 105.884 103.726C106.038 103.299 106.29 103.026 106.56 102.89C106.814 102.743 107.123 102.718 107.497 102.837C108.581 103.238 109.402 103.928 110.062 104.78C110.94 105.912 111.509 107.345 112.179 108.549C112.955 110 113.643 111.482 114.312 112.972C115.872 116.428 117.253 119.942 118.802 123.415C119.371 124.654 119.971 125.89 120.513 127.166C120.883 128.028 121.217 128.904 121.49 129.806C121.943 131.255 122.334 132.716 122.65 134.205C122.964 135.702 123.205 137.228 123.317 138.764C123.586 141.78 122.175 145.251 122.193 148.306C122.183 148.651 122.224 149 122.26 149.354C122.275 149.536 122.293 149.724 122.318 149.899C123.612 151.214 124.878 152.513 126.149 153.808C127.699 155.386 129.283 156.907 130.813 158.471C135.863 163.64 140.848 168.756 146.702 173.363C152.392 177.852 158.818 181.951 166.726 185.331C169.12 186.36 171.534 187.261 173.976 188.096C177.117 188.788 180.189 189.72 183.539 190.742C183.66 190.774 183.728 190.901 183.692 191.019C186.885 191.849 190.123 192.584 193.381 193.221C200.304 194.565 207.314 195.55 214.365 196.39C221.419 197.236 228.511 197.916 235.57 198.9C258.808 202.07 281.373 207.698 302.005 216.848L261.529 203.599C259.719 202.547 258.122 201.327 256.707 199.95C255.419 198.706 254.26 197.338 253.265 195.842C252.42 194.58 251.719 193.213 251.066 191.816C250.865 191.539 250.669 191.258 250.474 190.999C249.242 189.314 247.972 187.651 246.87 185.865C246.023 184.477 245.223 183.045 244.535 181.563C243.835 180.075 243.329 178.518 242.717 176.999C241.777 174.651 240.841 172.3 239.996 169.931C238.363 167.19 236.155 164.75 233.731 162.464C230.817 159.716 227.54 157.253 224.529 154.76C223.734 154.103 222.963 153.426 222.217 152.761C220.02 150.784 217.903 148.767 216.062 146.488C215.102 145.294 214.29 144.021 213.44 142.741C213.328 142.649 213.223 142.567 213.111 142.475C213.098 142.5 213.078 142.515 213.053 142.535C212.879 142.671 212.641 142.663 212.505 142.5C212.02 142.086 211.533 141.689 211.108 141.229C210.993 141.102 210.889 140.989 210.785 140.868C210.687 140.803 210.579 140.737 210.485 140.669C210.455 140.64 210.432 140.621 210.409 140.601C210.178 140.46 209.949 140.332 209.716 140.208C207.523 139.006 204.968 138.59 202.408 138.087C201.985 138.007 201.555 137.94 201.128 137.825C200.115 137.555 199.15 137.173 198.218 136.751C197.059 136.213 195.98 135.562 195.015 134.678C194.499 134.184 194.015 133.657 193.594 133.089C192.799 132.013 192.17 130.79 191.453 129.639C190.777 128.551 190.023 127.517 189.158 126.585C185.933 123.145 182.94 119.733 179.998 116.304C178.704 114.795 177.362 113.338 176.149 111.758C174.436 109.529 172.889 107.155 171.444 104.604C170.439 102.778 169.579 100.87 168.891 98.8864C167.881 95.9794 167.207 92.9371 166.44 89.982C165.974 88.1167 165.33 85.821 164.832 83.3821C164.531 81.9031 164.289 80.3642 164.103 78.8476C163.937 77.5186 163.79 76.2259 163.803 74.973C163.81 73.538 163.993 72.2046 164.291 70.9981C164.392 70.6349 164.583 70.5001 164.703 70.4586C164.873 70.3999 165.086 70.3752 165.296 70.5404C165.397 70.6183 165.643 71.1672 165.777 71.3691L166.783 72.7969L170.313 77.5397C172.865 81.2594 175.649 84.8133 178.256 88.4901C178.909 89.4159 179.56 90.3503 180.192 91.3002C181.669 93.5342 183.389 95.5256 185.185 97.4499C188.184 100.655 191.492 103.588 194.618 106.657C195.992 108.013 197.315 109.395 198.571 110.844C200.086 112.584 201.478 114.413 202.727 116.377C203.932 118.315 204.819 120.42 205.397 122.632C205.558 123.247 205.709 123.87 205.839 124.486C207.13 127.989 208 131.761 209.916 134.894C210.518 135.867 211.111 136.84 211.773 137.766C212.56 138.864 213.39 139.913 214.268 140.932C213.313 139.18 212.359 137.419 211.475 135.604C210.068 132.559 208.764 129.337 207.705 126.019C206.651 122.697 205.835 119.28 205.314 115.9C205.018 113.587 204.759 111.23 204.656 108.855C204.591 107.267 204.596 105.676 204.702 104.081L205.07 100.342L205.386 98.6572C205.431 98.4578 205.449 98.0616 205.494 97.8839C205.554 97.6728 205.711 97.587 205.797 97.4821C205.933 97.308 206.069 97.4711 206.309 97.3579C206.398 97.318 206.431 97.442 206.564 97.4275C206.64 97.4211 206.678 97.4287 206.745 97.4432C207.112 97.5529 207.333 97.9785 207.59 98.3381C208.107 99.0489 208.525 100.002 208.909 100.584L212.743 106.422C214.372 108.911 216.296 111.214 218.015 113.655C218.45 114.272 218.878 114.91 219.275 115.55C219.773 116.35 220.164 117.197 220.5 118.056C220.985 119.301 221.353 120.6 221.778 121.891C222.618 124.407 223.398 126.805 223.98 129.268C224.374 130.929 224.687 132.629 224.835 134.445C225.194 138.273 223.246 141.858 223.105 145.344C223.074 146.266 223.146 147.168 223.473 148.117C223.605 148.5 223.721 148.895 223.924 149.298C224.127 149.588 224.073 149.99 223.808 150.235C223.938 150.35 224.074 150.461 224.204 150.576C224.959 151.213 225.741 151.842 226.519 152.498C229.563 155.054 232.725 157.75 235.575 160.661C236.375 161.478 237.154 162.328 237.89 163.197C237.796 162.873 237.703 162.549 237.605 162.229C237.086 160.45 236.521 158.715 236.105 156.945C235.466 154.204 235.065 151.449 234.76 148.746C234.191 143.166 234.109 137.429 234.289 131.659C234.477 125.509 234.904 119.327 235.148 113.238C235.189 112.144 235.219 111.057 235.262 109.975C235.209 109.784 235.148 109.593 235.092 109.42C234.756 108.335 234.224 107.308 233.614 106.303C232.753 104.867 231.701 103.513 230.778 102.109C230.113 101.096 229.514 100.045 229.025 98.9908C228.073 96.8845 227.212 94.5655 226.712 92.1568C226.22 89.7357 226.076 87.2282 226.313 84.8271C226.491 83.0263 226.913 81.4154 227.511 79.8846C227.938 78.7714 228.48 77.733 229.041 76.6876C229.58 75.6663 230.145 74.6472 230.71 73.6064C231.442 72.2992 232.122 70.9355 232.796 69.5021C232.994 69.0998 233.158 68.6946 233.302 68.2747C233.687 67.2399 233.984 66.176 234.398 65.1481C234.59 64.6761 234.73 64.1996 234.869 63.7317C235.207 62.5459 235.453 61.3651 235.827 60.1521C235.942 59.8075 236.174 59.0493 236.538 58.6743C236.605 58.6067 236.646 58.5151 236.724 58.4915C237.177 58.4055 237.04 58.2811 237.309 58.4818C237.5 58.4075 237.865 58.4435 238.252 58.7019C238.888 59.1246 239.799 60.0728 239.938 60.2103L240.653 60.9902L241.346 61.8329C243.051 63.8359 244.503 66.284 245.641 68.8735C246.797 71.4861 247.626 74.265 247.984 76.9641C248.137 78.1537 248.197 79.3567 248.136 80.5578C248.072 81.7457 247.892 82.9496 247.651 84.1265C246.961 87.6083 245.669 91.0378 244.388 94.3169C243.735 95.8386 243.243 97.3916 242.662 98.9325C242.403 99.6365 242.12 100.33 241.793 100.998C241.153 102.382 240.316 103.689 239.643 105.062C239.37 105.605 239.122 106.158 238.924 106.725C238.004 109.646 237.602 112.522 237.311 115.407C237.174 116.757 237.079 118.111 236.975 119.472L236.97 119.476C237.696 118.294 238.614 117.163 239.79 115.756C240.607 114.771 241.337 113.728 242.119 112.719C242.487 112.266 242.863 111.815 243.27 111.383C244.625 110 246.116 108.668 247.679 107.406C249.952 105.558 252.376 103.84 254.621 102.119C255.814 101.237 257.03 100.464 258.274 99.7591C260.118 98.7341 262.011 97.8432 263.943 96.8908L268.058 94.9256C268.345 94.7905 268.822 94.4168 269.093 94.3019C269.232 94.2231 269.369 94.2436 269.492 94.237C269.781 94.2275 269.931 94.4394 270.08 94.8242C270.233 95.2137 270.215 95.744 270.134 96.3164C270.07 96.726 269.918 97.1366 269.857 97.4167C269.566 98.6326 269.235 99.7974 268.866 100.955C268.51 102.117 268.099 103.262 267.645 104.433C266.963 106.173 266.132 107.999 265.134 109.829C263.735 112.384 262.042 114.953 260.069 117.277C256.647 121.304 252.424 124.596 247.817 126.168C246.856 126.539 245.833 126.779 244.792 126.966C243.32 127.236 241.818 127.386 240.379 127.556C239.662 127.645 238.852 127.726 238.077 127.914C237.566 128.03 237.095 128.248 236.649 128.508C236.639 128.516 236.617 128.518 236.607 128.526C236.542 130.112 236.494 131.699 236.443 133.273C236.308 138.394 236.24 143.478 236.648 148.443C236.848 151.115 237.233 153.808 237.671 156.549C237.959 158.329 238.191 160.131 238.611 161.906C238.874 163.04 239.196 164.157 239.54 165.273C240.386 166.414 241.157 167.614 241.826 168.857C243.125 171.499 244.186 174.246 245.261 176.99C245.759 178.262 246.26 179.546 246.763 180.814C247.512 182.046 248.261 183.279 249.017 184.49C250.112 186.215 251.146 187.966 252.366 189.585C253.102 190.565 253.918 191.453 254.697 192.377C255.882 193.777 257.111 195.121 258.317 196.466C258.651 196.841 258.934 197.233 259.266 197.586C260.602 199.026 262.056 200.319 263.581 201.528C265.02 202.669 266.56 203.663 268.097 204.623C268.131 204.634 268.164 204.646 268.197 204.657C268.682 204.816 269.308 204.745 269.675 205.101C269.944 205.362 269.794 205.375 269.845 205.656C280.94 208.599 291.709 212.283 302.005 216.848C310.356 220.547 318.404 224.813 326.036 229.764C337.285 237.062 347.619 245.833 356.832 256.163C358.475 258.035 360.036 259.874 361.532 261.734C361.65 261.843 361.775 261.962 361.885 262.071C362.184 262.361 362.473 262.658 362.732 262.979C363.125 263.48 363.448 264.006 363.778 264.54C363.829 264.605 363.874 264.683 363.898 264.754C365.784 267.244 367.532 269.752 369.15 272.362C372.638 277.961 375.492 283.93 378.264 290.562C378.306 290.656 378.258 290.769 378.162 290.821C378.055 290.868 377.942 290.836 377.9 290.742C374.634 284.422 371.173 278.877 367.448 273.516C364.883 269.821 362.202 266.224 359.211 262.631C356.819 260.59 354.14 258.9 351.241 257.533C350.567 257.215 349.875 256.926 349.19 256.594C348.708 256.357 348.284 256.061 347.789 255.85C347.585 255.763 347.359 255.7 347.147 255.634C344.744 254.829 342.285 254.157 339.786 253.629C335.921 252.809 332.021 252.316 328.356 251.773C326.016 251.457 323.653 251.257 321.278 251.111C319.09 251.492 317.141 251.881 315.33 252.723C313.904 253.391 312.535 254.171 311.198 255.076C309.273 256.366 307.395 257.86 305.284 259.311C300.457 262.62 295.23 266.175 289.637 268.445C285.799 270.006 281.812 270.936 277.762 270.986L266.997 270.974L263.79 271.016C263.72 271.018 262.29 271.128 261.729 271.17C261.611 271.173 261.52 271.169 261.488 271.179C261.413 271.186 261.364 271.164 261.342 271.167C260.611 271.073 260.683 270.418 260.698 270.263C260.728 270.075 260.978 269.647 261.482 269.215C262.197 268.603 263.528 267.702 263.692 267.574C264.794 266.696 265.915 265.885 267.076 265.126C268.767 264.018 270.506 262.993 272.203 261.851C274.342 260.446 276.632 259.191 278.998 258.056C282.492 256.383 286.147 254.987 289.657 253.735C292.802 252.642 296.072 251.593 299.395 250.757C294.09 250.855 288.801 251.045 283.592 251.142C277.298 251.236 270.955 251.391 264.603 251.605C260.224 251.749 255.842 251.918 251.465 252.187C250.924 252.274 250.392 252.384 249.872 252.498C249.881 252.529 249.886 252.578 249.879 252.62C249.858 252.839 249.669 253.017 249.443 253.015C248.299 253.05 247.147 253.136 246.002 253.24C243.919 253.755 241.87 254.425 239.639 254.997C237.649 255.559 235.4 256.169 233.325 257.052C231.948 257.629 230.668 258.34 229.588 259.223C225.571 262.46 221.965 267.072 217.9 270.975C216.097 272.717 214.181 274.285 212.166 275.593C210.019 276.968 207.739 278.05 205.259 278.57C204.234 278.797 203.168 278.89 202.066 278.907C201.052 278.923 200.079 278.817 199.124 278.652C197.778 278.419 196.469 278.059 195.096 277.779C193.872 277.548 192.688 277.337 191.508 277.161C190.278 276.994 189.058 276.849 187.829 276.622C186.794 276.437 185.749 276.208 184.698 275.9C183.777 275.626 181.517 275.72 180.254 275.264C179.548 275.008 179.091 274.588 178.887 274.082C178.808 273.889 178.759 273.284 179.347 272.673C180.004 272.017 181.919 270.591 182.044 270.494C183.698 269.176 185.491 267.974 187.346 266.88C189.18 265.803 191.08 264.839 192.942 263.919C195.547 262.658 198.219 261.523 200.912 260.477C203.595 259.438 206.313 258.515 209.013 257.59C211.809 256.665 214.601 255.744 217.411 254.98C220.27 254.208 223.138 253.579 226.023 253.146C228.339 252.806 230.665 252.519 232.998 252.548C233.277 252.547 233.567 252.559 233.849 252.57C237.735 251.921 241.637 251.373 245.547 250.908C251.259 250.245 256.982 249.729 262.703 249.374C260.901 248.988 259.127 248.536 257.358 248.028C254.78 247.285 252.235 246.412 249.7 245.53C247.775 244.874 245.847 244.184 243.921 243.507C243.423 243.342 242.924 243.187 242.419 243.043C242.362 243.073 242.281 243.062 242.23 243.027C241.717 242.875 241.243 242.812 240.749 242.622C240.593 242.565 240.425 242.494 240.273 242.434C239.586 242.253 238.886 242.075 238.186 241.92C236.24 241.483 234.298 241.163 232.44 241.106C231.349 241.054 230.256 241.102 229.145 241.179C226.486 241.368 223.803 241.792 221.179 241.984C217.967 242.194 214.842 242.239 211.74 242.078C208.648 241.918 205.57 241.551 202.448 241.077C200.479 240.755 198.257 240.407 196.153 239.839C194.676 239.439 193.268 238.94 192.022 238.292C190.622 237.569 189.458 236.677 188.431 235.663C186.967 234.204 185.795 232.532 184.428 230.818C183.642 229.907 182.712 229.078 181.871 228.209C181.474 227.794 181.103 227.382 180.759 226.932C180.541 226.654 180.539 226.386 180.564 226.202C180.569 226.198 180.569 226.198 180.569 226.198C180.494 226.144 180.416 226.085 180.342 226.031C180.202 225.976 180.143 225.828 180.209 225.687C180.269 225.549 180.434 225.473 180.574 225.528C180.684 225.546 180.787 225.555 180.901 225.578C180.926 225.559 180.935 225.529 180.955 225.514C181.079 225.416 181.282 225.296 181.573 225.269C181.707 225.255 182.001 225.293 182.142 225.288L184.172 225.27L189.643 225.671C192.012 225.859 194.357 226.2 196.679 226.657C198.991 227.1 201.274 227.639 203.525 228.219C205.682 228.783 207.86 229.33 210.013 229.919C212.163 230.504 214.312 231.148 216.444 231.792C220.724 233.088 224.969 234.494 229.161 236.039C232.065 237.125 234.875 238.061 237.511 239.327C237.783 239.459 238.067 239.596 238.338 239.727C243.145 241.052 247.838 242.549 252.539 243.995C253.346 244.246 254.157 244.494 254.969 244.742C254.105 244.191 253.26 243.625 252.431 243.047C249.395 240.933 246.531 238.618 243.541 236.356C241.559 234.787 239.738 233.436 238.148 231.815C237.081 230.719 236.108 229.497 235.228 228.046C234.691 227.186 234.076 226.35 233.534 225.473C233.294 225.085 233.064 224.689 232.871 224.278C232.566 223.633 232.337 222.952 232.127 222.233C231.677 220.655 231.393 218.961 231.013 217.402L230.124 214.76C230.114 214.738 230.04 214.182 229.919 214.007C229.799 213.824 229.905 213.764 229.861 213.708C229.774 213.597 229.977 213.58 229.942 213.495C229.909 213.401 230.053 213.431 230.039 213.352C230.027 213.286 230.127 213.32 230.123 213.264C230.129 213.027 230.4 213.249 230.515 213.069C230.643 212.894 230.734 212.949 230.978 212.871C231.17 212.81 231.404 212.934 231.641 213.032C232.356 213.341 233.25 214.175 233.634 214.451C234.444 215.044 235.273 215.6 236.131 216.133C237.437 216.951 238.771 217.711 240.077 218.529C241.783 219.499 243.348 220.586 244.837 221.688C246.392 222.835 247.856 224.017 249.255 225.301C251.481 227.345 253.586 229.521 255.443 232.035C255.884 232.64 256.302 233.286 256.728 233.932C258.043 235.949 259.29 238.094 260.513 240.219C261.023 241.116 261.527 242.015 262.053 242.891C262.928 244.347 263.939 245.688 264.963 247.027C265.943 247.449 266.915 247.901 267.842 248.44C268.464 248.619 269.084 248.837 269.705 249.017C274.386 248.809 279.065 248.7 283.715 248.576C292.632 248.389 301.8 247.848 310.844 248.07C313.272 248.129 315.692 248.24 318.088 248.452C321.704 248.779 325.268 249.356 328.772 250.092C332.408 250.823 336.254 251.628 340.109 252.546C342.741 253.172 345.329 253.989 347.938 254.708C348.498 254.86 349.091 254.942 349.647 255.098C350.218 255.265 350.766 255.472 351.304 255.679C352.284 256.049 353.241 256.452 354.169 256.879C345.24 247.157 335.239 238.934 324.485 231.952C316.961 227.066 309.077 222.776 300.865 219.058C293.246 215.608 285.361 212.637 277.278 210.098C277.144 210.255 276.924 210.322 276.729 210.258C275.169 209.833 273.651 209.368 272.174 208.773C271.695 208.571 271.222 208.366 270.753 208.157C259.216 204.894 247.298 202.447 235.191 200.679C228.157 199.675 221.094 198.859 214.047 198.084C206.939 197.303 199.846 196.541 192.838 195.375C187.215 194.442 181.632 193.313 176.144 191.713C173.207 190.862 170.295 189.857 167.411 188.724C166.021 188.66 164.589 188.644 163.098 188.696C160.81 188.774 158.569 189.16 156.335 189.502C154.021 189.855 151.732 190.218 149.437 190.504C147.832 190.697 146.235 190.758 144.622 190.869C144.228 190.908 143.82 190.951 143.418 190.981C140.811 191.204 138.194 191.232 135.571 191.139C131.661 190.99 127.767 190.596 123.958 190.166C119.954 189.754 115.891 188.857 111.804 187.806C110.124 187.371 108.451 186.914 106.762 186.448C105.456 186.101 104.138 185.749 102.824 185.423C102.716 185.418 102.607 185.413 102.501 185.421C101.032 185.419 99.7048 185.68 98.4485 186.267C97.1674 186.874 95.9484 187.724 94.7891 188.722C93.0885 190.196 91.5137 191.953 89.8378 193.52C89.0983 194.204 88.3238 194.833 87.5276 195.434C86.344 196.309 85.1108 197.11 83.8714 197.924C80.2153 200.301 76.386 202.559 72.345 204.137C69.5962 205.204 66.7469 205.939 63.8311 206.291C62.365 206.437 60.8474 206.465 59.3305 206.433C57.12 206.375 54.8951 206.187 52.7922 206.082C50.7912 205.995 48.7468 205.934 46.746 205.735C46.1315 205.677 45.5186 205.581 44.9154 205.507C43.4484 205.323 42.0004 205.103 40.612 204.641C39.8865 204.4 39.8145 203.858 39.8284 203.435C39.8318 203.163 39.9772 202.847 40.2584 202.5C40.607 202.085 41.6518 201.483 42.0959 201.098C42.5482 200.744 43.0056 200.386 43.4652 200.041C44.5453 199.269 45.6642 198.558 46.7771 197.828C48.7149 196.565 50.6633 195.346 52.6321 194.163C54.6119 192.995 56.6012 191.848 58.6368 190.74C64.7954 187.504 71.8426 184.747 79.0661 183.146C81.6933 182.548 84.3581 182.1 87.0093 181.85C87.4301 181.753 87.8619 181.669 88.2909 181.602C90.8762 181.217 93.4748 181.33 96.072 181.564C97.4782 181.69 98.8799 181.872 100.288 182.124C93.8611 179.366 87.7036 176.112 82.0219 172.103C79.5581 170.35 77.1631 168.603 74.9114 166.721C72.6292 164.811 70.4939 162.77 68.4608 160.523L65.1885 156.805L64.0441 155.232C63.9536 155.085 63.6727 154.819 63.6031 154.679C63.4552 154.398 63.441 154.154 63.4704 153.967C63.5495 153.546 63.7552 153.04 64.5529 153.014C65.1636 152.985 65.8472 153.131 66.5207 153.397C67.7339 153.891 68.9857 154.752 69.8644 155.239C71.2611 155.927 72.6604 156.597 74.0548 157.272C76.1441 158.27 78.2482 159.257 80.3989 160.17C82.7046 161.179 85.0468 162.121 87.4107 163.01C92.9713 165.092 98.6328 166.975 104.032 169.364C107.367 170.846 110.608 172.507 113.679 174.503C115.217 175.484 116.556 176.651 117.839 177.899C119.564 179.58 121.192 181.351 122.873 183.067C123.734 183.941 124.618 184.784 125.559 185.596C125.789 185.798 126.001 186.006 126.248 186.209C127.469 187.236 128.838 187.991 130.322 188.595C130.929 188.838 131.545 189.082 132.185 189.284C132.665 189.425 133.145 189.558 133.632 189.678C134.328 189.747 135.028 189.812 135.734 189.873C138.294 190.069 140.861 190.132 143.423 190.004C143.963 189.955 144.518 189.917 145.058 189.838C147.265 189.533 149.422 188.928 151.598 188.429C153.425 188.009 155.266 187.615 157.124 187.335C159.094 187.034 161.082 186.9 163.088 186.901C153.105 182.398 145.407 176.818 138.633 170.596C135.109 167.367 131.798 164.01 128.629 160.466C127.167 158.834 125.782 157.127 124.336 155.445C123.601 154.598 122.862 153.747 122.116 152.887C121.92 152.861 121.737 152.772 121.614 152.614C121.451 152.457 121.292 152.275 121.145 152.098C120.284 151.53 119.345 151.038 118.359 150.62C117.397 150.22 116.373 149.885 115.328 149.565C111.172 148.314 106.527 147.626 102.363 147.009C100.898 146.787 99.4903 146.587 98.1906 146.31C89.6817 144.621 81.52 142.719 74.3136 139.202C69.8358 137.027 65.7426 134.207 62.1288 130.638C59.8607 128.387 57.8156 125.827 55.9705 122.908C55.1763 121.576 54.3531 120.095 53.6448 118.577C53.2961 117.824 52.9994 117.046 52.6851 116.297C52.3531 115.494 52.0084 114.716 51.7805 113.944C51.5866 113.317 51.9571 113.012 52.283 112.824C52.4304 112.746 52.6513 112.7 52.9339 112.733C53.1427 112.765 53.5439 112.959 53.7527 112.99L56.8635 113.675L62.4339 114.971C65.0887 115.617 67.7175 116.372 70.328 117.217C72.9177 118.056 75.4781 118.97 78.0014 119.898C80.3407 120.775 82.6433 121.637 84.9104 122.586C88.3478 124.025 91.6813 125.599 94.9382 127.3C96.5825 128.16 98.202 129.04 99.7872 129.999C103.439 132.184 106.931 134.666 110.283 137.431C111.754 138.644 113.12 139.895 114.415 141.231ZM316.902 250.9C316.219 251.166 315.562 251.463 314.922 251.762C313.446 252.447 312.048 253.295 310.636 254.184C308.68 255.424 306.695 256.761 304.518 258.107C299.669 261.112 294.374 264.181 288.886 266.308C285.293 267.7 281.62 268.735 277.861 268.85C276.414 268.898 274.984 268.925 273.55 268.978C271.38 269.053 269.212 269.164 267.044 269.313L264.078 269.51C264.437 269.281 264.731 269.125 264.801 269.071C264.831 269.048 264.873 269.03 264.908 269.002C265.285 268.962 265.656 268.903 266.036 268.845C268.856 268.38 271.71 267.642 274.53 266.84C278.103 265.831 281.603 264.587 284.862 263.075C289.985 260.687 295.148 257.818 300.424 255.4C303.929 253.793 307.494 252.385 311.133 251.481C312.234 251.218 313.364 251.052 314.492 250.947C315.014 250.897 315.533 250.873 316.053 250.861C316.335 250.873 316.617 250.884 316.902 250.9ZM266.731 267.829C267.556 267.325 268.404 266.862 269.236 266.368C270.655 265.548 272.056 264.706 273.453 263.806C275.493 262.478 277.697 261.299 279.951 260.214C283.363 258.59 286.917 257.199 290.354 255.966C294.404 254.471 298.675 253.125 302.986 252.076C305.384 251.493 307.788 251.04 310.188 250.694C310.329 250.689 310.464 250.688 310.615 250.697C310.658 250.701 310.706 250.7 310.754 250.7C307.117 251.565 303.545 252.903 300.045 254.485C294.748 256.866 289.597 259.771 284.481 262.168C281.906 263.376 279.18 264.411 276.385 265.297C273.211 266.324 269.928 267.077 266.731 267.829ZM259.431 244.346C257.544 243.279 255.755 242.12 254 240.934C250.958 238.863 248.03 236.68 244.999 234.511C244.022 233.816 243.085 233.142 242.179 232.497C241.237 231.828 240.33 231.191 239.463 230.463C238.366 229.533 237.334 228.523 236.355 227.253C235.836 226.559 235.246 225.898 234.709 225.181C234.376 224.746 234.053 224.273 233.781 223.782C233.361 223.011 233.034 222.152 232.775 221.269C232.385 219.921 232.128 218.497 231.785 217.179L231.394 214.888C231.857 215.192 232.406 215.749 232.64 215.873L232.871 215.984C234.396 217.133 235.824 218.342 237.116 219.725C239.692 222.492 241.875 225.669 244.242 228.629C245.292 229.939 246.414 231.187 247.563 232.398C249.276 234.207 251.066 235.949 252.809 237.735C254.729 239.675 256.521 241.737 258.542 243.56C258.844 243.832 259.135 244.091 259.431 244.346ZM236.765 217.823L239.672 219.19C241.373 220.112 242.975 221.073 244.422 222.193C245.925 223.343 247.271 224.632 248.521 226.003C250.5 228.181 252.102 230.647 253.712 233.225C254.107 233.852 254.511 234.471 254.9 235.11C256.143 237.168 257.209 239.379 258.447 241.472C258.85 242.151 259.263 242.801 259.708 243.44C259.238 243.015 258.778 242.581 258.331 242.123C256.696 240.485 255.171 238.723 253.553 237.025C251.822 235.245 250.041 233.504 248.333 231.682C247.2 230.481 246.109 229.262 245.074 227.962C242.697 224.988 240.495 221.787 237.9 219.006C237.531 218.607 237.156 218.22 236.765 217.823ZM184.224 273.944C188.139 273.31 192.075 272.428 195.981 271.517C199.529 270.67 203.014 269.632 206.376 268.241C207.968 267.571 209.539 266.812 211.101 266C214.66 264.134 218.141 262.006 221.706 260.239C226.075 258.097 230.624 256.286 235.271 255.042C237.228 254.52 239.192 254.119 241.183 253.825C240.624 253.971 240.063 254.125 239.487 254.27C237.459 254.773 235.151 255.338 232.991 256.124C231.494 256.69 230.064 257.353 228.849 258.238C224.609 261.252 220.623 265.594 216.386 269.369C214.624 270.928 212.848 272.409 210.942 273.61C209.049 274.808 207.046 275.711 204.867 276.227C203.982 276.449 203.069 276.625 202.12 276.702C201.234 276.759 200.402 276.731 199.554 276.631C198.203 276.484 196.889 276.218 195.514 276.03C194.226 275.849 192.971 275.731 191.737 275.56C190.908 275.453 190.098 275.309 189.285 275.152C187.984 274.914 186.677 274.597 185.367 274.164C185.087 274.062 184.683 273.996 184.224 273.944ZM181.952 273.141C182.606 272.666 183.243 272.22 183.307 272.169C184.611 271.223 185.994 270.357 187.398 269.527C189.537 268.286 191.74 267.136 193.923 266.093C195.948 265.105 198.019 264.217 200.114 263.37C203.272 262.087 206.477 260.916 209.667 259.787C212.404 258.797 215.146 257.854 217.9 256.977C219.085 256.596 220.272 256.227 221.464 255.885C226.781 254.82 232.14 254.013 237.518 253.394C236.698 253.587 235.876 253.797 235.056 254.02C230.331 255.288 225.708 257.105 221.276 259.281C217.683 261.01 214.161 263.087 210.573 264.917C209.051 265.697 207.51 266.433 205.94 267.071C203.47 268.084 200.926 268.902 198.336 269.598C192.939 271.063 187.372 272.003 181.952 273.141ZM184.517 227.942C189.392 229.999 194.272 232.113 199.27 233.917C203.609 235.474 208.049 236.78 212.655 237.552C216.863 238.245 221.44 238.283 225.855 238.718C227.054 238.827 228.241 239.02 229.398 239.229C229.328 239.231 229.258 239.234 229.184 239.232C226.528 239.291 223.833 239.598 221.215 239.665C218.099 239.762 215.093 239.662 212.098 239.432C209.095 239.202 206.103 238.843 203.081 238.343C201.179 238.044 199.043 237.733 197.01 237.237C195.701 236.907 194.44 236.525 193.324 235.992C192.107 235.411 191.109 234.68 190.186 233.869C188.701 232.547 187.434 231.031 185.998 229.484C185.537 228.947 185.027 228.44 184.517 227.942ZM185.782 227.325C186.964 227.432 188.127 227.584 189.298 227.708C191.577 227.966 193.833 228.378 196.057 228.873C198.294 229.374 200.515 229.978 202.695 230.621C204.753 231.21 206.797 231.824 208.865 232.406C211.958 233.262 215.061 234.08 218.142 234.953C220.439 235.602 222.734 236.259 225.018 236.963C220.983 236.635 216.84 236.639 213.001 236.038C208.459 235.359 204.081 234.131 199.791 232.678C195.05 231.069 190.421 229.141 185.782 227.325ZM231.422 213.96C231.433 213.974 231.428 213.978 231.428 213.978L231.418 213.986L231.417 213.964L231.42 213.947L231.422 213.96ZM231.403 213.885C231.39 213.858 231.378 213.853 231.355 213.833C231.309 213.817 231.441 213.841 231.421 213.856C231.406 213.868 231.401 213.872 231.403 213.885ZM206.334 102.406C206.542 103.523 206.799 104.639 207.052 105.751C208.103 110.43 209.41 115.058 210.608 119.711C211.617 123.569 212.639 127.424 213.862 131.228C214.672 133.767 215.574 136.271 216.57 138.74C217.685 141.527 218.881 144.303 220.279 146.958C219.74 146.423 219.188 145.882 218.652 145.351C218.598 145.303 218.557 145.261 218.515 145.218C218.402 144.91 218.279 144.609 218.161 144.305C216.816 140.98 214.983 137.902 213.553 134.591C212.212 131.599 211.017 128.425 209.989 125.188C208.973 121.965 208.128 118.674 207.585 115.401C207.163 113.172 206.764 110.902 206.522 108.606C206.363 107.092 206.262 105.561 206.274 104.04L206.334 102.406ZM267.652 97.8785C267.392 98.7337 267.108 99.5696 266.804 100.399C266.413 101.499 265.973 102.585 265.492 103.702C264.264 106.557 262.544 109.634 260.52 112.589C259.234 114.45 257.84 116.275 256.302 117.936C253.647 120.772 250.645 123.175 247.277 124.496C246.426 124.802 245.532 125.002 244.605 125.129C243.175 125.351 241.703 125.418 240.309 125.522C239.324 125.605 238.19 125.662 237.143 125.943C238.362 124.337 239.824 123.049 241.386 121.879C242.803 120.821 244.311 119.88 245.851 118.958C249.506 116.784 253.343 114.752 256.518 111.831C258.009 110.521 259.399 108.998 260.72 107.387C262.056 105.765 263.352 104.061 264.558 102.375C265.087 101.639 265.591 100.9 266.096 100.182C266.61 99.4356 267.113 98.6447 267.652 97.8785ZM207.199 101.115C207.274 101.273 207.349 101.409 207.416 101.536C207.776 102.138 208.151 102.75 208.53 103.336C209.417 104.715 210.359 106.051 211.277 107.427C212.946 109.907 214.909 112.188 216.664 114.623C217.098 115.219 217.511 115.817 217.905 116.443C218.367 117.167 218.726 117.911 219.04 118.691C219.533 119.914 219.897 121.178 220.332 122.44C221.182 124.918 221.991 127.241 222.55 129.685C222.915 131.278 223.147 132.915 223.237 134.648C223.312 136.813 222.554 138.844 221.906 140.833C221.541 141.965 221.179 143.079 220.993 144.183C220.063 142.135 219.184 140.061 218.381 137.95C217.457 135.5 216.609 133.005 215.788 130.512C214.554 126.756 213.381 122.965 212.282 119.156C210.541 113.266 208.684 107.415 207.269 101.419C207.248 101.331 207.226 101.221 207.199 101.115ZM236.773 124.406C236.824 124.389 236.867 124.332 236.935 124.265C237.072 124.142 237.045 123.924 237.092 123.759C238.001 120.997 239.296 119.548 241.482 117.148C242.365 116.187 243.149 115.161 243.994 114.17C244.333 113.784 244.676 113.403 245.048 113.038C246.006 112.04 247.046 111.083 248.115 110.134C250.635 107.905 253.359 105.772 255.883 103.69C256.936 102.791 258.031 102.008 259.149 101.275C260.892 100.142 262.708 99.1534 264.548 98.0936L267.025 96.73C266.292 97.5962 265.632 98.5249 264.943 99.3862C264.318 100.205 263.669 101.036 263.033 101.893C261.629 103.838 260.245 105.88 258.712 107.732C257.764 108.887 256.77 109.972 255.714 110.949C252.529 113.712 248.691 115.529 245.092 117.621C243.487 118.571 241.918 119.568 240.479 120.71C239.095 121.831 237.839 123.085 236.771 124.557L236.773 124.406ZM165.916 75.8784C166.295 77.7448 166.86 79.5407 167.533 81.2813C169.063 85.2107 171.238 88.8588 173.604 92.4326C176.097 96.199 178.828 99.7266 181.667 103.147C185.915 108.263 190.41 113.142 194.714 118.289C196.3 120.161 197.84 122.046 199.335 123.974C200.822 125.893 202.271 127.857 203.629 129.877C205.401 132.457 206.905 135.217 208.604 137.816C206.741 136.82 204.657 136.146 202.561 135.497C200.487 134.846 198.408 134.259 196.75 132.818C196.028 132.245 195.409 131.577 194.814 130.868C194.229 130.173 193.65 129.475 193.116 128.732C192.273 127.574 191.485 126.372 190.507 125.349C187.232 121.874 183.972 118.603 181.202 114.964C180.085 113.496 179.124 111.921 178.13 110.356C176.68 108.063 175.304 105.713 174.083 103.151C173.444 101.833 172.939 100.461 172.44 99.0861C172.105 98.1576 171.766 97.2331 171.459 96.2984C170.675 93.9039 169.994 91.4578 169.294 89.0491C168.76 87.2297 168.092 84.9752 167.451 82.6104C167.062 81.2015 166.664 79.7616 166.352 78.3291C166.184 77.5102 166.039 76.6804 165.916 75.8784ZM167.156 75.3416L169.272 78.2278C171.343 81.5987 173.598 84.8473 175.742 88.1683C176.65 89.5833 177.53 91.0045 178.383 92.4622C180.157 95.4744 182.285 98.1714 184.615 100.696C187.295 103.605 190.197 106.317 193.022 109.074C195.382 111.381 197.707 113.684 199.728 116.285C199.714 116.297 199.704 116.305 199.689 116.316C199.539 116.494 199.555 116.75 199.726 116.886C200.545 117.614 201.222 118.417 201.806 119.276C202.115 119.813 202.399 120.361 202.668 120.929C203.163 122.001 203.566 123.13 203.974 124.255C204.486 125.636 204.881 127.041 205.453 128.397C205.61 128.761 205.803 129.058 205.977 129.393C205.994 129.455 206.026 129.497 206.075 129.519C206.207 129.902 206.339 130.285 206.476 130.665C206.092 130.022 205.69 129.386 205.287 128.758C203.922 126.677 202.493 124.659 200.992 122.691C199.51 120.738 197.949 118.816 196.357 116.927C191.263 110.976 185.921 105.384 180.992 99.3868C178.908 96.8493 176.885 94.2349 174.999 91.4898C173.026 88.6116 171.178 85.6796 169.702 82.5764C168.615 80.2768 167.739 77.8787 167.156 75.3416ZM239.045 60.8204C239.119 60.8744 239.167 60.9045 239.178 60.9184L239.813 61.6784L240.467 62.5437C241.965 64.559 243.235 66.9697 244.127 69.5422C245.008 72.0791 245.492 74.7459 245.588 77.3056C245.621 78.3808 245.539 79.4548 245.42 80.5212C245.298 81.6047 245.137 82.6891 244.9 83.7582C244.182 87.0602 242.943 90.3213 241.692 93.4344C241.51 93.8986 241.328 94.3628 241.183 94.8432C240.607 96.6268 240.213 98.4477 239.552 100.215C239.025 101.601 238.334 102.951 237.752 104.327C237.662 104.54 237.576 104.757 237.486 104.97C237.53 102.57 237.473 100.182 237.838 97.7099C238.47 93.5398 239.595 89.3953 240.352 85.2318C240.541 84.1628 240.723 83.1148 240.852 82.0406C241.016 80.7748 241.109 79.5116 241.165 78.2624C241.236 76.3876 241.207 74.5169 241.166 72.6324C241.134 71.0556 241.035 69.4945 240.819 67.9493C240.608 66.4002 240.269 64.8617 239.823 63.37C239.578 62.5661 239.365 61.6698 239.045 60.8204ZM237.494 60.7551C237.96 61.7296 238.194 62.8568 238.482 63.8288C238.914 65.2717 239.203 66.7368 239.424 68.2261C239.634 69.7233 239.766 71.2439 239.82 72.7664C239.895 74.6237 239.964 76.4632 239.928 78.3108C239.899 79.5234 239.833 80.7501 239.696 81.9879C239.504 83.5453 239.242 85.1053 238.909 86.6461C238.114 90.3004 237.037 93.9214 236.388 97.5884C236.018 99.5325 235.886 101.463 235.802 103.362C235.781 104.052 235.761 104.734 235.741 105.415C235.695 105.325 235.648 105.234 235.601 105.144C234.822 103.628 233.88 102.128 232.984 100.666C232.4 99.716 231.823 98.7837 231.377 97.8153C230.452 95.8671 229.696 93.6826 229.113 91.4742C228.527 89.2612 228.103 87.0105 228.106 84.7924C228.1 81.9681 228.748 79.5292 229.816 77.1959C230.273 76.2237 230.802 75.2707 231.37 74.3167C232.219 72.9331 233.169 71.5755 234.051 70.0909C234.311 69.6551 234.523 69.1978 234.722 68.735C235.154 67.7304 235.474 66.6858 235.935 65.6965C236.17 65.1678 236.358 64.6392 236.539 64.123C236.896 63.0124 237.14 61.9006 237.494 60.7551ZM123.745 188.297C121.034 187.119 118.168 186.265 115.386 185.233C110.107 183.274 104.815 181.341 99.7353 179.002C94.1242 176.435 88.7158 173.492 83.7056 169.901C80.8015 167.842 78.0367 165.755 75.3919 163.515C73.6446 162.032 71.9398 160.5 70.3156 158.816L67.6528 156.051C68.142 156.296 68.6089 156.544 68.9943 156.729C69.2912 156.893 69.5859 157.044 69.872 157.194C69.8068 157.193 69.7521 157.236 69.7047 157.288C69.6383 157.377 69.6613 157.509 69.7443 157.564C72.2534 159.334 74.699 161.258 77.2313 163.048C78.9389 164.255 80.6881 165.393 82.4804 166.422C85.1256 167.936 87.8285 169.359 90.5666 170.725C96.9377 173.924 103.477 176.827 109.821 180.032C112.15 181.203 114.514 182.42 116.832 183.689C118.374 184.532 119.9 185.395 121.382 186.293C122.542 186.986 123.705 187.775 124.905 188.488C124.714 188.459 124.517 188.433 124.326 188.404C124.134 188.374 123.932 188.33 123.745 188.297ZM70.2705 157.406C71.9329 158.29 73.5786 159.142 75.2545 159.94C76.6697 160.621 78.0979 161.246 79.5605 161.875C81.9011 162.856 84.298 163.756 86.684 164.642C92.2142 166.695 97.8007 168.667 103.138 171.089C106.365 172.567 109.498 174.222 112.458 176.2C115.775 178.468 118.016 181.781 120.746 184.59C119.656 183.947 118.542 183.322 117.417 182.706C115.1 181.437 112.723 180.215 110.384 179.03C104.041 175.846 97.503 172.905 91.1102 169.761C88.3767 168.421 85.6658 167.048 83.0053 165.577C81.6597 164.842 80.3519 164.032 79.0481 163.197C76.0864 161.31 73.1991 159.282 70.2705 157.406ZM43.5619 203.431C44.1638 203.319 44.7689 203.241 45.3758 203.125C46.5352 202.906 47.6905 202.63 48.8384 202.345C49.6778 202.136 50.5102 201.888 51.3249 201.587C54.6939 200.318 58.0741 198.951 61.4226 197.451C62.9137 196.785 64.387 196.065 65.8735 195.372C69.3494 193.728 72.8107 192.065 76.1494 190.266C78.3099 189.113 80.4525 188.101 82.6503 187.21C84.8322 186.31 87.0642 185.535 89.3773 184.771C90.7671 184.334 92.1525 183.952 93.5351 183.7C93.9217 183.682 94.3119 183.668 94.7095 183.664C95.0165 183.708 95.3273 183.756 95.6294 183.804C96.8229 184.007 98.0048 184.257 99.1962 184.529C98.7611 184.69 98.3414 184.891 97.9218 185.093C96.5521 185.791 95.2786 186.766 94.0199 187.842C92.318 189.325 90.6274 190.986 88.8957 192.491C88.1828 193.117 87.4326 193.675 86.6606 194.205C85.4755 195.006 84.2444 195.738 82.9998 196.473C79.9871 198.279 76.8454 199.961 73.5984 201.314C71.9941 201.979 70.3542 202.537 68.6992 203.025C67.0605 203.493 65.4066 203.89 63.7034 204.101C62.3302 204.293 60.9105 204.365 59.4816 204.383C57.2849 204.405 55.0638 204.303 52.9783 204.282C50.6125 204.241 48.1684 204.366 45.8484 204.005C45.0612 203.881 44.2982 203.685 43.5619 203.431ZM44.6153 202.441L48.2076 200.136C50.1302 198.915 52.057 197.75 54.0142 196.614C55.9614 195.486 57.9341 194.39 59.9481 193.336C65.8283 190.123 72.6 187.454 79.5162 185.728C82.6723 184.955 85.8566 184.392 89.0037 184.038C86.7597 184.89 84.5927 185.779 82.4607 186.723C80.2877 187.706 78.1301 188.73 75.9752 189.931C72.0074 192.043 67.9236 194.089 63.7273 195.878C61.2185 196.945 58.6695 197.878 56.1327 198.817C54.4292 199.448 52.7379 200.084 51.0447 200.676C49.1832 201.341 47.2392 201.613 45.369 202.195C45.1133 202.268 44.8636 202.359 44.6153 202.441ZM54.5649 115.154C54.506 115.14 54.4417 115.16 54.3993 115.209C54.3171 115.288 54.307 115.408 54.3737 115.483C56.7748 118.221 59.6453 120.606 62.8243 122.638C67.5401 125.659 72.8594 127.945 77.7887 130.132C81.7075 131.839 85.6191 133.536 89.5672 135.167C92.2041 136.26 94.8526 137.307 97.5261 138.335C101.677 139.897 106.2 141.422 110.363 143.431C113.129 144.761 115.743 146.306 117.975 148.255C117.99 148.274 118.029 148.303 118.053 148.314C118.246 148.53 118.441 148.737 118.63 148.948C117.875 148.619 117.085 148.317 116.283 148.061C111.777 146.628 106.54 146.403 102.04 145.706C100.819 145.509 99.6582 145.266 98.5872 145.004C90.7149 142.981 83.2629 140.613 76.5236 137.231C74.8092 136.373 73.1321 135.471 71.5056 134.469C68.8533 132.834 66.3457 130.943 64.0031 128.751C61.7943 126.678 59.7094 124.344 57.8346 121.643C56.7806 120.215 55.6429 118.599 54.7277 116.898C54.4921 116.453 54.2587 116.022 54.0701 115.556C53.989 115.35 53.9129 115.14 53.849 114.936L54.5649 115.154ZM107.637 104.838C107.635 104.825 107.645 104.817 107.639 104.8C108.004 105.112 108.307 105.489 108.569 105.875C109.353 106.998 109.882 108.35 110.506 109.515C111.562 111.375 112.514 113.287 113.392 115.227C114.729 118.184 115.906 121.192 117.25 124.167C117.805 125.409 118.393 126.64 118.911 127.896C119.249 128.716 119.559 129.552 119.809 130.404C120.214 131.801 120.579 133.23 120.871 134.678C121.149 136.098 121.345 137.547 121.445 139.026C121.579 141.736 120.262 144.765 119.979 147.547L119.949 147.518C119.938 147.31 119.932 147.098 119.899 146.891C119.884 146.76 119.834 146.635 119.799 146.498C119.353 144.721 119.106 142.879 118.759 141.054C118.573 140.048 118.35 139.047 118.053 138.074L114.304 126.437C112.937 122.08 111.288 117.743 109.875 113.348C109.028 110.71 108.272 108.076 107.741 105.371C107.7 105.185 107.713 104.996 107.637 104.838ZM107.316 108.196C107.535 109.305 107.793 110.413 108.09 111.52C109.476 116.729 111.492 121.782 113.033 126.893L116.684 138.548C117.174 140.238 117.441 142.012 117.727 143.771C117.53 143.387 117.323 142.988 117.107 142.58C115.304 139.142 113.789 135.568 112.459 131.924C111.125 128.276 109.969 124.547 109.058 120.732C108.514 118.471 108.075 116.18 107.772 113.857C107.521 111.981 107.36 110.086 107.316 108.196ZM54.6274 115.172L56.1952 115.658L61.693 117.251C63.7522 117.801 65.793 118.441 67.8186 119.123C70.8673 120.148 73.8715 121.291 76.8346 122.473C79.1134 123.376 81.3596 124.319 83.5887 125.26C86.9708 126.691 90.2972 128.143 93.5331 129.755C95.151 130.561 96.745 131.409 98.3278 132.273C101.922 134.241 105.448 136.367 108.815 138.812C110.808 140.702 112.703 142.609 114.516 144.505C113.363 143.769 112.157 143.089 110.913 142.454C106.764 140.351 102.225 138.764 98.0727 137.128C94.7589 135.846 91.4743 134.489 88.2037 133.098C84.9368 131.712 81.6751 130.292 78.4171 128.876C73.5053 126.773 68.285 124.439 63.4887 121.653C60.2758 119.783 57.224 117.72 54.6787 115.207C54.6628 115.197 54.6483 115.178 54.6274 115.172ZM165.61 73.214C165.592 73.2428 165.578 73.2762 165.566 73.3227C165.553 73.2437 165.546 73.1739 165.535 73.1081L165.61 73.214Z" fill="#647E64" fill-opacity="0.3"/>
</g>
</svg>
